Coordinates
version=1
nRows=19
nColumns=24
inDegrees=yes

Units are S.I. units (second, meters, Newtons, ...)
Angles are in degrees.

endheader
time	pelvis_tilt	pelvis_list	pelvis_rotation	pelvis_tx	pelvis_ty	pelvis_tz	hip_flexion_r	hip_adduction_r	hip_rotation_r	knee_angle_r	ankle_angle_r	subtalar_angle_r	mtp_angle_r	hip_flexion_l	hip_adduction_l	hip_rotation_l	knee_angle_l	ankle_angle_l	subtalar_angle_l	mtp_angle_l	lumbar_extension	lumbar_bending	lumbar_rotation
      3.92000000	    -21.50237996	     -1.49794891	      8.95338837	     -1.85452244	     -0.03883408	     -0.26969357	     47.41699407	      0.33326392	      1.28463953	     -8.87370377	     -5.52739339	     -5.43379824	     14.54959198	      1.10544713	      3.21650712	     12.39305846	    -13.35624547	     23.78093140	     29.43778402	    -66.36399808	     13.71810331	     -2.25613261	     -9.35201998
      3.92500000	    -21.42175979	     -1.67433042	      8.97333575	     -1.84600274	     -0.04022692	     -0.26960682	     47.61270044	      0.59224471	      1.27442282	    -10.01982972	     -6.59563313	     -5.60467156	     14.67898362	      0.95375384	      2.93073372	     12.16814047	    -14.26177021	     23.59402554	     30.02041185	    -66.27592373	     13.76454808	     -2.05697034	     -9.56594319
      3.93000000	    -21.35006328	     -1.84573226	      8.91021161	     -1.83741086	     -0.04158998	     -0.26936775	     47.83176092	      0.92521049	      1.39920360	    -11.20742203	     -8.03160557	     -6.03340810	     14.89626907	      0.85242575	      2.62528228	     11.69081504	    -15.23384704	     23.32090992	     30.76369384	    -66.13135296	     13.82841548	     -1.84441612	     -9.65199420
      3.93500000	    -21.24439299	     -1.97264866	      8.81185098	     -1.82886600	     -0.04283403	     -0.26906025	     48.04192757	      1.26235083	      1.57333657	    -12.45467509	     -9.67380449	     -6.61566034	     15.21253201	      0.75264706	      2.35037662	     11.13872123	    -16.26162275	     22.90203441	     31.54523028	    -65.87190960	     13.83312281	     -1.66406869	     -9.67254665
      3.94000000	    -21.25908500	     -2.19632469	      8.69202040	     -1.82014552	     -0.04407150	     -0.26881876	     48.38669379	      1.67589508	      1.66338166	    -13.74224200	    -11.34994913	     -7.25158219	     15.07882620	      0.81012135	      1.98937879	     10.62503306	    -17.31070956	     22.37539633	     32.24002906	    -65.70373203	     14.01749777	     -1.38826213	     -9.69992904
      3.94500000	    -21.25211609	     -2.36452872	      8.50476974	     -1.81151157	     -0.04521436	     -0.26838409	     48.74466659	      2.12611487	      1.91706391	    -15.12160983	    -12.89294885	     -8.04909581	     14.67001693	      0.91080487	      1.64751416	      9.88010703	    -18.45533667	     21.71628027	     33.11216853	    -65.51465262	     14.14847706	     -1.16003450	     -9.61228642
      3.95000000	    -21.27583082	     -2.56594499	      8.29005352	     -1.80284681	     -0.04626961	     -0.26791406	     49.13591720	      2.63896297	      2.23250023	    -16.54310031	    -14.17454658	     -8.95723763	     13.91616380	      1.10968540	      1.25270694	      9.04712017	    -19.67846830	     20.89956018	     34.02275513	    -65.28535794	     14.32110131	     -0.89385173	     -9.51385253
      3.95500000	    -21.24376505	     -2.81380696	      8.01846035	     -1.79410657	     -0.04714259	     -0.26729356	     49.51935224	      3.29287365	      2.61608137	    -18.28370383	    -14.14279244	     -9.22241272	      9.47279907	      1.27334541	      0.76726297	      8.18888157	    -20.89878591	     19.54388557	     35.06521277	    -62.76305309	     14.44248393	     -0.56700346	     -9.33113433
      3.96000000	    -21.33973048	     -3.03898606	      7.76261043	     -1.78544346	     -0.04806320	     -0.26675518	     49.97002561	      3.89489875	      3.03810668	    -19.76392839	    -14.77715240	    -10.32350471	      8.79209534	      1.67395304	      0.31274620	      7.29022587	    -22.25285361	     18.37232554	     36.00140337	    -62.59621483	     14.69440929	     -0.27744773	     -9.21550369
      3.96500000	    -21.24037712	     -3.35458170	      7.48503696	     -1.77667340	     -0.04864122	     -0.26603595	     50.23008753	      4.68921930	      3.45749026	    -21.55944646	    -13.73687273	    -10.56794051	      3.42699787	      1.89753306	     -0.31169963	      6.40044335	    -23.58533234	     16.54994820	     37.14286100	    -59.67261539	     14.74586209	      0.11695597	     -9.01831827
      3.97000000	    -21.39029795	     -3.55528527	      7.18572598	     -1.76805074	     -0.04944636	     -0.26538908	     50.67097016	      5.36504087	      4.02542895	    -23.04675031	    -13.70738385	    -11.65600511	      2.96040237	      2.45990616	     -0.76185417	      5.59502726	    -25.01596008	     14.92164333	     37.98334333	    -59.46478955	     15.04355761	      0.37598264	     -8.81871553
      3.97500000	    -21.35640244	     -3.77420558	      6.92526067	     -1.75947010	     -0.04987604	     -0.26478467	     50.90524968	      6.09973514	      4.52827396	    -24.74669509	    -12.29678900	    -11.93222584	     -1.38046677	      2.71281961	     -1.21772549	      5.01409171	    -25.82409588	      8.36552825	     39.80808964	    -33.80423506	     15.12733253	      0.67031929	     -8.65696190
      3.98000000	    -21.38189810	     -4.00684237	      6.59408272	     -1.75089622	     -0.05036518	     -0.26407887	     51.08050400	      6.88330391	      5.09976219	    -26.08557714	    -11.81424838	    -12.80992957	     -1.73648468	      3.25119923	     -1.73222948	      4.31662694	    -27.30294749	      6.28009678	     40.59107398	    -33.75591515	     15.27673054	      0.98276023	     -8.40573845
      3.98500000	    -21.28530567	     -4.22530857	      6.32700561	     -1.74237755	     -0.05055547	     -0.26337470	     51.10078873	      7.66434776	      5.57042014	    -27.58091357	    -10.08281257	    -12.94811170	     -5.99432247	      3.57114483	     -2.21902266	      3.62171795	    -28.10666403	      0.59947961	     41.54949447	    -17.39051331	     15.27738907	      1.27084661	     -8.27635945
      3.99000000	    -21.19507986	     -4.45431946	      6.01838506	     -1.73393117	     -0.05073825	     -0.26264323	     51.03394151	      8.46326818	      6.02637927	    -28.83854605	     -8.75001350	    -13.25511206	     -8.51118554	      4.05113012	     -2.70266175	      3.11488663	    -29.42017121	     -2.73758561	     41.96961387	    -13.67020986	     15.27604635	      1.57534064	     -8.07431780
      3.99500000	    -21.12129551	     -4.68578164	      5.71475669	     -1.72566845	     -0.05090405	     -0.26199051	     50.89285033	      9.20618001	      6.40938917	    -29.81727301	     -8.06655701	    -13.80420463	     -8.40505987	      4.67206840	     -3.15532819	      2.75583985	    -30.98839825	     -5.38208953	     42.12000066	    -13.88236924	     15.26820500	      1.88784351	     -7.87293769
      4.00000000	    -21.05484092	     -4.90848576	      5.34219379	     -1.71731158	     -0.05100319	     -0.26124382	     50.66342041	      9.98277187	      6.78513620	    -30.65035565	     -7.31904034	    -14.30105441	     -8.49045520	      5.29415896	     -3.58124971	      2.39102592	    -32.48061012	     -8.24614520	     41.96193610	    -13.78822618	     15.28484287	      2.20152038	     -7.59774343
      4.00500000	    -20.89906707	     -5.11040093	      5.11269647	     -1.70930466	     -0.05089074	     -0.26067822	     50.32012835	     10.59960003	      6.95485729	    -31.48196818	     -5.99968613	    -14.21072425	    -10.08762977	      5.91169979	     -3.94088715	      2.11693338	    -33.85735321	    -12.07315274	     41.39232064	     -9.63719437	     15.15157963	      2.45931543	     -7.48477579
      4.01000000	    -20.74652411	     -5.36213184	      4.83947547	     -1.70129793	     -0.05075210	     -0.26003629	     49.87484140	     11.24619283	      7.05878431	    -32.02378603	     -5.24957795	    -14.43558302	     -9.82284816	      6.61948103	     -4.35277674	      1.88290022	    -35.48361590	    -14.79695895	     40.56963910	    -10.21579523	     15.02924037	      2.77478027	     -7.30912461
